<svg version="1.1" id="Layer_1" xmlns="http://www.w3.org/2000/svg" x="0" y="0" width="512" height="512" viewBox="0 0 512 512" style="enable-background:new 0 0 512 512" xml:space="preserve">
    <style>
        svg {
            background-color: #2c4c31;
        }

        path {
			fill: #fffaff;
		}
    </style>
    <path d="M25.2 366.7C66.5 452.6 154.4 512 256 512c78.9 0 149.6-35.9 196.6-92.2-41.3-18.4-106.3-27.7-193.6-27.7-90.1 0-168.6-8.6-233.8-25.4zM256 0C114.8 0 0 114.8 0 256c0 25.4 3.7 49.9 10.6 73.1l110.9-76.2c4.5-3.1 10.4-3.6 15.3-1.2l79.4 37.7L339.4 200c5.3-3.8 12.4-3.9 17.8-.3l150.6 102.7c2.8-15.1 4.2-30.6 4.2-46.4C512 114.8 397.2 0 256 0z"/>
    <path d="M173.6 358.4c27.1 1.9 55.5 2.9 85.4 2.9 95.5 0 166.7 11.2 212.2 33.2 12-18.6 21.6-38.8 28.5-60.2l-150.9-103-175.2 127.1zM131.7 283.3l-78.6 58.3c23.1 5.1 47.8 9.3 74.1 12.4l60.7-44.1-56.2-26.6z"/>
</svg>
