<?xml version="1.0" encoding="UTF-8"?>

<svg xmlns="http://www.w3.org/2000/svg" viewBox="0 0 356 82.4">
  <defs>
    <style>path{fill:#fffaff;}</style>
  </defs>

  <path d="M4,58.73a41,41,0,0,0,68.45,8.5c-6.62-2.94-17-4.43-31-4.43C27.05,62.8,14.48,61.42,4,58.73Z"></path>
  <path d="M41,0A41,41,0,0,0,1.7,52.71L19.46,40.5a2.47,2.47,0,0,1,2.45-.19l12.72,6L54.36,32A2.52,2.52,0,0,1,57.21,32L81.33,48.43A40.58,40.58,0,0,0,82,41,41,41,0,0,0,41,0Z"></path>
  <path d="M27.8,57.4c4.34.3,8.89.46,13.68.46,15.3,0,26.7,1.8,34,5.32A40.78,40.78,0,0,0,80,53.54L55.86,37Z"></path>
  <path d="M21.09,45.37,8.5,54.71q5.55,1.23,11.87,2l9.72-7.07Z"></path>
  <path d="M103.43,51.29l1-2.63,2.4-5.87,8.53-19.54h8.95V43.36a50,50,0,0,1-.66,8q.25-.71,3.37-8.78l7.7-19.35h9.51l-16.18,37H116.32V44.56q0-3.93.33-8.2a73.08,73.08,0,0,1-3,8.83L107.2,60.25H96.14l-1.25-37h9.43l-.26,18.55A72.68,72.68,0,0,1,103.43,51.29Z"></path>
  <path d="M162.1,60.25h-7.82l.25-3h-.22A8.69,8.69,0,0,1,151.25,60a8.21,8.21,0,0,1-3.72.83,7.06,7.06,0,0,1-6.07-2.82c-1.38-1.88-2.07-4.59-2.07-8.11a25.16,25.16,0,0,1,1.84-9.23,17.54,17.54,0,0,1,4.67-7.1,9.36,9.36,0,0,1,6.23-2.41,7.31,7.31,0,0,1,3.75.95,8.46,8.46,0,0,1,2.88,3.1H159l1.35-4h7.89Zm-10.54-7.14A3.17,3.17,0,0,0,154,51.63a11.42,11.42,0,0,0,1.84-4,18.56,18.56,0,0,0,.68-4.87,5.92,5.92,0,0,0-.51-2.66,1.66,1.66,0,0,0-1.57-1q-1.94,0-3.49,3.21a16.16,16.16,0,0,0-1.56,7.15C149.38,51.9,150.11,53.11,151.56,53.11Z"></path>
  <path d="M177.66,60.25h-9.95l8.46-40h9.94Z"></path>
  <path d="M191.51,20.25h9.89l-3.61,17.21A55.17,55.17,0,0,1,196,43.25h.18a37.69,37.69,0,0,1,4-5.18l6.27-6.82h11.17l-12.57,13.1,7,15.9h-11l-3.58-10-2.59,1.36-1.78,8.69h-9.94Z"></path>
  <path d="M245,34.46a12.5,12.5,0,0,1-4.39,10.12q-4.4,3.68-12,3.67h-2.15l-2.47,12H214l7.82-37h9.44q6.63,0,10.17,2.9T245,34.46Zm-16.91,5.79h1.67a5.18,5.18,0,0,0,3.92-1.56,5.51,5.51,0,0,0,1.49-3.95,3.42,3.42,0,0,0-1-2.53,3.57,3.57,0,0,0-2.64-1H230Z"></path>
  <path d="M256.76,61.47q-5.17,0-8-3t-2.88-8.36a22.25,22.25,0,0,1,2-9.66,14.47,14.47,0,0,1,13.79-8.75A11.18,11.18,0,0,1,269,33.87a7.17,7.17,0,0,1,2.66,5.82,9,9,0,0,1-3.82,7.83q-3.81,2.73-11,2.73h-1.44v.41q0,3.75,4,3.75a12.54,12.54,0,0,0,3.78-.59,24.94,24.94,0,0,0,4.22-1.9v7a21.8,21.8,0,0,1-5.1,2A23.48,23.48,0,0,1,256.76,61.47Zm3.79-24a3.71,3.71,0,0,0-2.89,1.76,8.17,8.17,0,0,0-1.63,4h.74a7.76,7.76,0,0,0,4.34-1,3.22,3.22,0,0,0,1.58-2.78,2,2,0,0,0-.51-1.38A2.11,2.11,0,0,0,260.55,37.49Z"></path>
  <path d="M296.19,60.25h-7.81l.24-3h-.22A8.53,8.53,0,0,1,285.34,60a8.13,8.13,0,0,1-3.71.83,7.05,7.05,0,0,1-6.07-2.82c-1.39-1.88-2.08-4.59-2.08-8.11a25.18,25.18,0,0,1,1.85-9.23,17.53,17.53,0,0,1,4.66-7.1,9.37,9.37,0,0,1,6.24-2.41,7.3,7.3,0,0,1,3.74.95,8.38,8.38,0,0,1,2.88,3.1h.25l1.34-4h7.9Zm-10.53-7.14a3.17,3.17,0,0,0,2.42-1.48,11.25,11.25,0,0,0,1.84-4,18.17,18.17,0,0,0,.69-4.87,5.92,5.92,0,0,0-.51-2.66,1.67,1.67,0,0,0-1.57-1c-1.29,0-2.45,1.07-3.5,3.21a16.16,16.16,0,0,0-1.56,7.15Q283.47,53.11,285.66,53.11Z"></path>
  <path d="M310.16,20.25h9.89l-3.6,17.21a58.39,58.39,0,0,1-1.77,5.79h.18a38.5,38.5,0,0,1,4-5.18l6.27-6.82h11.17L323.7,44.35l7,15.9h-11l-3.57-10-2.6,1.36-1.77,8.69h-9.95Z"></path>
  <path d="M354.15,50.52a9.49,9.49,0,0,1-3.3,7.77Q347.55,61,341.36,61a21.57,21.57,0,0,1-9-1.6v-7.9a18.71,18.71,0,0,0,4.34,1.78,16.43,16.43,0,0,0,4.06.51,5.61,5.61,0,0,0,2.59-.47,1.44,1.44,0,0,0,.86-1.31,2.11,2.11,0,0,0-.66-1.54,20,20,0,0,0-3.3-2.14A10.57,10.57,0,0,1,336.29,45a8.39,8.39,0,0,1-1.23-4.65,8,8,0,0,1,3.07-6.72q3.08-2.37,8.74-2.37a19.07,19.07,0,0,1,5.18.66,18,18,0,0,1,4.54,2l-3.07,6.39a17,17,0,0,0-3.47-1.73,9.1,9.1,0,0,0-3.08-.65c-1.29,0-1.93.57-1.93,1.72a1.56,1.56,0,0,0,.8,1.3,22.84,22.84,0,0,0,2.6,1.45Q354.16,45.24,354.15,50.52Z"></path>
</svg>
